HIERARCHY
ROOT Hips
{
	OFFSET	0.000000	0.000000	0.000000
	CHANNELS 6 Xposition Yposition Zposition Zrotation Xrotation Yrotation
	JOINT LeftHip
	{
		OFFSET	4.740440	-3.195970	-0.322709
		CHANNELS 3 Zrotation Xrotation Yrotation
		JOINT LeftKnee
		{
			OFFSET	-1.605680	-15.592300	1.005510
			CHANNELS 3 Zrotation Xrotation Yrotation
			JOINT LeftAnkle
			{
				OFFSET	-0.632401	-16.421000	-1.413730
				CHANNELS 3 Zrotation Xrotation Yrotation
				End Site
				{
					OFFSET	0.008423	-2.933000	-1.684880
				}
			}
		}
	}
	JOINT RightHip
	{
		OFFSET	-4.740440	-3.195970	-0.322709
		CHANNELS 3 Zrotation Xrotation Yrotation
		JOINT RightKnee
		{
			OFFSET	1.605680	-15.592300	1.005510
			CHANNELS 3 Zrotation Xrotation Yrotation
			JOINT RightAnkle
			{
				OFFSET	0.632401	-16.421000	-1.413730
				CHANNELS 3 Zrotation Xrotation Yrotation
				End Site
				{
					OFFSET	-0.008423	-2.933000	-1.684880
				}
			}
		}
	}
	JOINT Chest
	{
		OFFSET	0.000000	3.468200	0.078401
		CHANNELS 3 Zrotation Xrotation Yrotation
		JOINT LeftCollar
		{
			OFFSET	3.857650	15.070700	-0.011583
			CHANNELS 3 Zrotation Xrotation Yrotation
			JOINT LeftShoulder
			{
				OFFSET	3.979720	-1.940530	-0.165223
				CHANNELS 3 Zrotation Xrotation Yrotation
				JOINT LeftElbow
				{
					OFFSET	0.615844	-10.986600	-0.673886
					CHANNELS 3 Zrotation Xrotation Yrotation
					JOINT LeftWrist
					{
						OFFSET	0.826843	-10.854500	1.034220
						CHANNELS 3 Zrotation Xrotation Yrotation
						End Site
						{
							OFFSET	-1.679080	-8.456540	0.936217
						}
					}
				}
			}
		}
		JOINT RightCollar
		{
			OFFSET	-3.857650	15.070700	-0.011583
			CHANNELS 3 Zrotation Xrotation Yrotation
			JOINT RightShoulder
			{
				OFFSET	-3.979720	-1.940530	-0.165223
				CHANNELS 3 Zrotation Xrotation Yrotation
				JOINT RightElbow
				{
					OFFSET	-0.615845	-10.986600	-0.673886
					CHANNELS 3 Zrotation Xrotation Yrotation
					JOINT RightWrist
					{
						OFFSET	-0.826843	-10.854500	1.034220
						CHANNELS 3 Zrotation Xrotation Yrotation
						End Site
						{
							OFFSET	1.679080	-8.456540	0.936217
						}
					}
				}
			}
		}
		JOINT Neck
		{
			OFFSET	0.000000	15.101400	0.055730
			CHANNELS 3 Zrotation Xrotation Yrotation
			JOINT Head
			{
				OFFSET	0.000000	4.185120	1.488260
				CHANNELS 3 Zrotation Xrotation Yrotation
				End Site
				{
					OFFSET	0.000000	7.773420	-0.106016
				}
			}
		}
	}
}
MOTION
Frames:    7
Frame Time: 0.016667
-16.209864	37.698551	-3.266090	2.496263	-10.151185	-12.472477	-4.357656	7.755529	-0.857674	-3.049410	3.219378	9.938540	5.432157	-4.138480	7.454159	-20.676689	-1.826932	-3.960032	2.889025	16.719242	-0.379705	12.283282	-4.243658	3.718903	-8.629022	8.529321	0.851244	0.297610	1.421612	5.500914	1.417979	-3.480881	-2.129607	-3.363780	-5.929008	-2.290245	9.296559	6.721361	-16.809246	-2.008589	1.444971	0.853612	-0.516998	-1.023864	0.070575	-0.562537	-5.647721	8.863964	-11.130519	-4.165921	16.283556	-1.531714	6.757205	-2.617377	4.749851	-0.167608	-13.607203	
-16.209864	37.698551	-3.266090	2.496263	-10.151185	-12.472477	-4.357656	7.755529	-0.857674	-3.049410	3.219378	9.938540	5.432157	-4.138480	7.454159	-20.676689	-1.826932	-3.960032	2.891024	16.723886	-0.380063	12.281456	-4.248255	3.719686	-8.633963	8.534339	0.852408	0.302431	1.416519	5.500508	1.418514	-3.480038	-2.121578	-3.365117	-5.929399	-2.298321	9.296751	6.722334	-16.815023	-2.003762	1.439899	0.853002	-0.516800	-1.024180	0.084627	-0.566031	-5.647956	8.867042	-11.125741	-4.158642	16.286016	-1.521971	6.726533	-2.625204	4.717673	-0.185654	-13.616236	
-16.210060	37.698387	-3.265699	2.498964	-10.151266	-12.467584	-4.359665	7.755373	-0.862156	-3.049410	3.219378	9.938540	5.432157	-4.138480	7.454159	-20.679441	-1.825835	-3.964339	2.895695	16.734783	-0.380969	12.277198	-4.259023	3.721584	-8.648891	8.547693	0.850988	0.315096	1.403144	5.499436	1.420079	-3.477513	-2.097632	-3.369073	-5.930574	-2.322411	9.296954	6.723297	-16.820850	-1.991083	1.426577	0.851393	-0.516153	-1.025205	0.131238	-0.576950	-5.648518	8.871177	-11.112083	-4.137536	16.290829	-1.487624	6.640687	-2.631175	4.647558	-0.156783	-13.642475	
-16.210289	37.698200	-3.265243	2.502094	-10.151359	-12.461904	-4.361990	7.755191	-0.867363	-3.049410	3.219378	9.938540	5.432157	-4.138480	7.454159	-20.682627	-1.824559	-3.969345	2.898129	16.740450	-0.381435	12.274976	-4.264627	3.722564	-8.651700	8.548469	0.845901	0.315640	1.402565	5.499394	1.420602	-3.476651	-2.089470	-3.370413	-5.930975	-2.330623	9.296954	6.723297	-16.820850	-1.990538	1.426000	0.851327	-0.515925	-1.025564	0.147223	-0.582170	-5.649229	8.885773	-11.103275	-4.124344	16.296524	-1.479893	6.602416	-2.641917	4.624814	-0.141690	-13.640324	
-16.211021	37.697598	-3.263782	2.512196	-10.151670	-12.443565	-4.369500	7.754613	-0.884166	-3.049410	3.219378	9.938540	5.432157	-4.138480	7.454159	-20.692919	-1.820434	-3.985493	2.905233	16.756990	-0.382795	12.268497	-4.280978	3.725429	-8.658975	8.549139	0.829068	0.315640	1.402565	5.499394	1.422161	-3.474135	-2.065609	-3.374357	-5.932145	-2.354629	9.296954	6.723297	-16.820850	-1.990538	1.426000	0.851327	-0.515374	-1.026622	0.190360	-0.590106	-5.648848	8.870469	-11.095157	-4.112227	16.302124	-1.479135	6.599877	-2.642763	4.613418	-0.135804	-13.624734	
-16.211283	37.697380	-3.263259	2.515808	-10.151776	-12.437022	-4.372186	7.754405	-0.890159	-3.049410	3.219378	9.938540	5.432157	-4.138480	7.454159	-20.696596	-1.818966	-3.991254	2.907712	16.762758	-0.383278	12.266239	-4.286678	3.726434	-8.661576	8.549374	0.823065	0.315640	1.402565	5.499394	1.422647	-3.473338	-2.058029	-3.375601	-5.932511	-2.362254	9.296954	6.723297	-16.820850	-1.990538	1.426000	0.851327	-0.515216	-1.026924	0.202468	-0.592970	-5.648963	8.871877	-11.091230	-4.106363	16.304756	-1.479135	6.599877	-2.642763	4.610477	-0.148371	-13.553177	
-16.212368	37.696487	-3.261091	2.530790	-10.152233	-12.409862	-4.383329	7.753557	-0.915044	-3.049410	3.219378	9.938540	5.432157	-4.138480	7.454159	-20.711853	-1.812848	-4.015168	2.915435	16.780737	-0.384756	12.259196	-4.304455	3.729533	-8.672372	8.550372	0.798135	0.306283	1.409626	5.508769	1.432179	-3.479139	-2.044541	-3.379290	-5.933591	-2.384840	9.296954	6.723297	-16.820850	-1.990538	1.426000	0.851327	-0.514808	-1.027721	0.234357	-0.601165	-5.649535	8.881665	-11.080288	-4.089299	16.307308	-1.450197	6.572673	-2.601375	4.547468	-0.126224	-13.493463	
